<svg width="18" height="18" viewBox="0 0 18 18" fill="none" xmlns="http://www.w3.org/2000/svg">
<path d="M9.00294 0C5.24552 0 4.14662 0.00387774 3.93301 0.0215999C3.16193 0.0857128 2.68212 0.207156 2.15938 0.467479C1.75653 0.66758 1.43882 0.899519 1.12526 1.22466C0.55422 1.8176 0.20813 2.54707 0.0828436 3.4142C0.021935 3.83515 0.00421266 3.921 0.000613795 6.07122C-0.000767244 6.78796 0.000613795 7.73124 0.000613795 8.99647C0.000613795 12.7519 0.0047637 13.85 0.0227648 14.0632C0.0850613 14.8137 0.202728 15.2859 0.451914 15.8024C0.928135 16.7911 1.83765 17.5333 2.90914 17.8103C3.28015 17.9058 3.68992 17.9585 4.21598 17.9834C4.43886 17.9931 6.71058 18 8.98369 18C11.2568 18 13.5299 17.9972 13.7473 17.9862C14.3564 17.9575 14.7101 17.91 15.1012 17.8089C16.1796 17.5306 17.0725 16.7994 17.5584 15.7969C17.8027 15.2928 17.9266 14.8026 17.9827 14.0913C17.9949 13.9362 18 11.4635 18 8.99412C18 6.5243 17.9945 4.05615 17.9823 3.90106C17.9255 3.17824 17.8016 2.6922 17.5494 2.17846C17.3424 1.75791 17.1126 1.44385 16.779 1.12274C16.1836 0.553892 15.4554 0.207707 14.5877 0.0825291C14.1673 0.0217361 14.0835 0.00373493 11.9322 0H9.00294Z" fill="url(#paint0_radial_1_496)"/>
<path d="M9.00294 0C5.24552 0 4.14662 0.00387774 3.93301 0.0215999C3.16193 0.0857128 2.68212 0.207156 2.15938 0.467479C1.75653 0.66758 1.43882 0.899519 1.12526 1.22466C0.55422 1.8176 0.20813 2.54707 0.0828436 3.4142C0.021935 3.83515 0.00421266 3.921 0.000613795 6.07122C-0.000767244 6.78796 0.000613795 7.73124 0.000613795 8.99647C0.000613795 12.7519 0.0047637 13.85 0.0227648 14.0632C0.0850613 14.8137 0.202728 15.2859 0.451914 15.8024C0.928135 16.7911 1.83765 17.5333 2.90914 17.8103C3.28015 17.9058 3.68992 17.9585 4.21598 17.9834C4.43886 17.9931 6.71058 18 8.98369 18C11.2568 18 13.5299 17.9972 13.7473 17.9862C14.3564 17.9575 14.7101 17.91 15.1012 17.8089C16.1796 17.5306 17.0725 16.7994 17.5584 15.7969C17.8027 15.2928 17.9266 14.8026 17.9827 14.0913C17.9949 13.9362 18 11.4635 18 8.99412C18 6.5243 17.9945 4.05615 17.9823 3.90106C17.9255 3.17824 17.8016 2.6922 17.5494 2.17846C17.3424 1.75791 17.1126 1.44385 16.779 1.12274C16.1836 0.553892 15.4554 0.207707 14.5877 0.0825291C14.1673 0.0217361 14.0835 0.00373493 11.9322 0H9.00294Z" fill="url(#paint1_radial_1_496)"/>
<path d="M9.00294 0C5.24552 0 4.14662 0.00387774 3.93301 0.0215999C3.16193 0.0857128 2.68212 0.207156 2.15938 0.467479C1.75653 0.66758 1.43882 0.899519 1.12526 1.22466C0.55422 1.8176 0.20813 2.54707 0.0828436 3.4142C0.021935 3.83515 0.00421266 3.921 0.000613795 6.07122C-0.000767244 6.78796 0.000613795 7.73124 0.000613795 8.99647C0.000613795 12.7519 0.0047637 13.85 0.0227648 14.0632C0.0850613 14.8137 0.202728 15.2859 0.451914 15.8024C0.928135 16.7911 1.83765 17.5333 2.90914 17.8103C3.28015 17.9058 3.68992 17.9585 4.21598 17.9834C4.43886 17.9931 6.71058 18 8.98369 18C11.2568 18 13.5299 17.9972 13.7473 17.9862C14.3564 17.9575 14.7101 17.91 15.1012 17.8089C16.1796 17.5306 17.0725 16.7994 17.5584 15.7969C17.8027 15.2928 17.9266 14.8026 17.9827 14.0913C17.9949 13.9362 18 11.4635 18 8.99412C18 6.5243 17.9945 4.05615 17.9823 3.90106C17.9255 3.17824 17.8016 2.6922 17.5494 2.17846C17.3424 1.75791 17.1126 1.44385 16.779 1.12274C16.1836 0.553892 15.4554 0.207707 14.5877 0.0825291C14.1673 0.0217361 14.0835 0.00373493 11.9322 0H9.00294Z" fill="url(#paint2_radial_1_496)"/>
<path d="M9.00294 0C5.24552 0 4.14662 0.00387774 3.93301 0.0215999C3.16193 0.0857128 2.68212 0.207156 2.15938 0.467479C1.75653 0.66758 1.43882 0.899519 1.12526 1.22466C0.55422 1.8176 0.20813 2.54707 0.0828436 3.4142C0.021935 3.83515 0.00421266 3.921 0.000613795 6.07122C-0.000767244 6.78796 0.000613795 7.73124 0.000613795 8.99647C0.000613795 12.7519 0.0047637 13.85 0.0227648 14.0632C0.0850613 14.8137 0.202728 15.2859 0.451914 15.8024C0.928135 16.7911 1.83765 17.5333 2.90914 17.8103C3.28015 17.9058 3.68992 17.9585 4.21598 17.9834C4.43886 17.9931 6.71058 18 8.98369 18C11.2568 18 13.5299 17.9972 13.7473 17.9862C14.3564 17.9575 14.7101 17.91 15.1012 17.8089C16.1796 17.5306 17.0725 16.7994 17.5584 15.7969C17.8027 15.2928 17.9266 14.8026 17.9827 14.0913C17.9949 13.9362 18 11.4635 18 8.99412C18 6.5243 17.9945 4.05615 17.9823 3.90106C17.9255 3.17824 17.8016 2.6922 17.5494 2.17846C17.3424 1.75791 17.1126 1.44385 16.779 1.12274C16.1836 0.553892 15.4554 0.207707 14.5877 0.0825291C14.1673 0.0217361 14.0835 0.00373493 11.9322 0H9.00294Z" fill="url(#paint3_radial_1_496)"/>
<path d="M9.00367 2.31104C7.18609 2.31104 6.95799 2.31897 6.24411 2.35144C5.53164 2.38404 5.04531 2.49675 4.61978 2.66214C4.17961 2.83295 3.80622 3.06144 3.43423 3.43329C3.06196 3.80501 2.83329 4.17812 2.6618 4.61783C2.49587 5.04319 2.38294 5.52929 2.35087 6.24096C2.31895 6.9543 2.31058 7.18237 2.31058 8.9986C2.31058 10.8148 2.31867 11.0421 2.35101 11.7554C2.38378 12.4674 2.49658 12.9533 2.66193 13.3785C2.83301 13.8184 3.06167 14.1915 3.4338 14.5632C3.80567 14.9352 4.17905 15.1643 4.61894 15.3351C5.04475 15.5004 5.53122 15.6132 6.24355 15.6458C6.95743 15.6782 7.18539 15.6862 9.00283 15.6862C10.8206 15.6862 11.048 15.6782 11.7618 15.6458C12.4743 15.6132 12.9612 15.5004 13.387 15.3351C13.827 15.1643 14.1999 14.9352 14.5717 14.5632C14.944 14.1915 15.1727 13.8184 15.3442 13.3787C15.5087 12.9533 15.6216 12.4672 15.6551 11.7556C15.6871 11.0422 15.6955 10.8148 15.6955 8.9986C15.6955 7.18236 15.6871 6.95444 15.6551 6.24109C15.6216 5.52914 15.5087 5.04319 15.3442 4.61797C15.1727 4.17812 14.944 3.80501 14.5717 3.43329C14.1994 3.06129 13.8272 2.8328 13.3866 2.66213C12.9599 2.49675 12.4733 2.38404 11.7609 2.35144C11.047 2.31897 10.8197 2.31104 9.00158 2.31104H9.00367ZM8.40329 3.51619C8.58148 3.51591 8.78031 3.51619 9.00367 3.51619C10.7906 3.51619 11.0024 3.5226 11.708 3.55464C12.3605 3.58446 12.7147 3.69341 12.9506 3.78494C13.2629 3.90616 13.4856 4.05106 13.7197 4.28512C13.9539 4.51919 14.0989 4.74211 14.2205 5.05419C14.3121 5.28965 14.4213 5.64353 14.451 6.29557C14.483 7.00055 14.49 7.21233 14.49 8.99707C14.49 10.7818 14.483 10.9936 14.451 11.6986C14.4211 12.3506 14.3121 12.7045 14.2205 12.9399C14.0992 13.252 13.9539 13.4743 13.7197 13.7082C13.4854 13.9422 13.263 14.0871 12.9506 14.2084C12.715 14.3003 12.3605 14.409 11.708 14.4388C11.0025 14.4708 10.7906 14.4778 9.00367 14.4778C7.21662 14.4778 7.00483 14.4708 6.29933 14.4388C5.64681 14.4087 5.29266 14.2998 5.05661 14.2082C4.74429 14.087 4.5212 13.9421 4.28697 13.708C4.05273 13.474 3.90773 13.2516 3.78614 12.9394C3.69454 12.7039 3.58537 12.35 3.55567 11.698C3.5236 10.993 3.51718 10.7813 3.51718 8.9954C3.51718 7.20954 3.5236 6.99888 3.55567 6.2939C3.58551 5.64186 3.69454 5.28798 3.78614 5.05224C3.90744 4.74015 4.05273 4.51724 4.28697 4.28317C4.5212 4.0491 4.74429 3.90421 5.05661 3.78272C5.29252 3.69076 5.64681 3.5821 6.29933 3.55213C6.91671 3.52427 7.15597 3.51591 8.4033 3.51451L8.40329 3.51619ZM12.5761 4.6266C12.1327 4.6266 11.773 4.98565 11.773 5.42883C11.773 5.87189 12.1327 6.23134 12.5761 6.23134C13.0195 6.23134 13.3792 5.87189 13.3792 5.42883C13.3792 4.98578 13.0195 4.62633 12.5761 4.62633L12.5761 4.6266ZM9.00367 5.56425C7.10564 5.56425 5.56678 7.10198 5.56678 8.9986C5.56678 10.8952 7.10564 12.4322 9.00367 12.4322C10.9017 12.4322 12.44 10.8952 12.44 8.9986C12.44 7.10198 10.9016 5.56425 9.00353 5.56425H9.00367ZM9.00367 6.76941C10.2357 6.76941 11.2345 7.76739 11.2345 8.9986C11.2345 10.2297 10.2357 11.2278 9.00367 11.2278C7.77155 11.2278 6.77283 10.2297 6.77283 8.9986C6.77283 7.76739 7.77155 6.76941 9.00367 6.76941Z" fill="white"/>
<defs>
<radialGradient id="paint0_radial_1_496" cx="0" cy="0" r="1" gradientTransform="matrix(-11.0692 3.12177 -2.24912 -7.97481 17.4188 8.43682)" gradientUnits="userSpaceOnUse">
<stop stop-color="#FF005F"/>
<stop offset="1" stop-color="#FC01D8"/>
</radialGradient>
<radialGradient id="paint1_radial_1_496" cx="0" cy="0" r="1" gradientUnits="userSpaceOnUse" gradientTransform="translate(4.78111 19.3864) rotate(-90) scale(14.3679 15.2441)">
<stop stop-color="#FFCC00"/>
<stop offset="0.1242" stop-color="#FFCC00"/>
<stop offset="0.5672" stop-color="#FE4A05"/>
<stop offset="0.6942" stop-color="#FF0F3F"/>
<stop offset="1" stop-color="#FE0657" stop-opacity="0"/>
</radialGradient>
<radialGradient id="paint2_radial_1_496" cx="0" cy="0" r="1" gradientTransform="matrix(2.98227 -5.13855 6.68981 3.8826 9.45485 17.7462)" gradientUnits="userSpaceOnUse">
<stop stop-color="#FFCC00"/>
<stop offset="1" stop-color="#FFCC00" stop-opacity="0"/>
</radialGradient>
<radialGradient id="paint3_radial_1_496" cx="0" cy="0" r="1" gradientTransform="matrix(-10.9477 3.08268 -1.05 -3.72994 2.44221 0.732955)" gradientUnits="userSpaceOnUse">
<stop stop-color="#780CFF"/>
<stop offset="1" stop-color="#820BFF" stop-opacity="0"/>
</radialGradient>
</defs>
</svg>
