<svg width="18" height="20" viewBox="0 0 18 20" fill="none" xmlns="http://www.w3.org/2000/svg">
<g clip-path="url(#clip0_1_341)">
<path d="M14.8577 4.00883C13.7786 3.30649 13.0004 2.18226 12.7572 0.872401C12.705 0.58946 12.6759 0.297991 12.6759 0H9.23246L9.22693 13.7798C9.16916 15.3229 7.8971 16.5616 6.33818 16.5616C5.85337 16.5616 5.3972 16.4407 4.99529 16.2295C4.0739 15.7454 3.4434 14.7811 3.4434 13.6715C3.4434 12.0777 4.74208 10.7808 6.33768 10.7808C6.6356 10.7808 6.92146 10.83 7.19174 10.9143V7.40412C6.91191 7.36599 6.62756 7.34241 6.33768 7.34241C2.84304 7.34241 0 10.1814 0 13.6715C0 15.8126 1.0711 17.7074 2.70588 18.8532C3.73529 19.5751 4.98775 20 6.33818 20C9.83282 20 12.6759 17.1611 12.6759 13.6715V6.68372C14.0263 7.65144 15.6812 8.22184 17.4667 8.22184V4.7834C16.5051 4.7834 15.6093 4.49796 14.8577 4.00883Z" fill="white"/>
</g>
<defs>
<clipPath id="clip0_1_341">
<rect width="17.4667" height="20" fill="white"/>
</clipPath>
</defs>
</svg>
