<svg width="56" height="56" viewBox="0 0 56 56" fill="none" xmlns="http://www.w3.org/2000/svg">
<path d="M27.93 4.66663C15.05 4.66663 4.59668 15.12 4.59668 28C4.59668 40.88 15.05 51.3333 27.93 51.3333C40.81 51.3333 51.2633 40.88 51.2633 28C51.2633 15.12 40.8333 4.66663 27.93 4.66663ZM34.93 33.2033L28.1633 37.1C27.3233 37.59 26.39 37.8233 25.48 37.8233C24.5467 37.8233 23.6367 37.59 22.7967 37.1C21.1167 36.12 20.1133 34.3933 20.1133 32.4333V24.6166C20.1133 22.68 21.1167 20.93 22.7967 19.95C24.4767 18.97 26.4833 18.97 28.1867 19.95L34.9533 23.8466C36.6333 24.8266 37.6367 26.5533 37.6367 28.5133C37.6367 30.4733 36.6333 32.2233 34.93 33.2033Z" fill="white"/>
</svg>
